<svg width="114.000000" height="92.000000" viewBox="0 0 114 92" fill="none" xmlns="http://www.w3.org/2000/svg" xmlns:xlink="http://www.w3.org/1999/xlink">
	<desc>
			Created with Pixso.
	</desc>
	<defs/>
	<path id="Vector" d="M34.48 0.55C34.3 0.9 34.11 2.63 34.11 4.39C34.11 6.92 34.22 7.68 34.71 8.1C35.57 8.8 37.21 8.58 37.66 7.68C37.92 7.17 38.33 6.98 39.22 6.98C39.9 6.98 40.46 7.11 40.46 7.3C40.46 7.46 41.31 7.62 42.32 7.62C43.37 7.62 44.19 7.46 44.19 7.3C44.19 7.08 49.08 7.01 58.67 7.04L73.11 7.14L73.11 7.94L73.11 8.74L63.41 8.9C52.85 9.06 52.58 9.12 50.46 11.04C47.51 13.7 47.66 17.88 50.76 20.54C52.7 22.2 53.44 22.3 63.07 22.33C71.8 22.36 73.3 22.52 73.3 23.45C73.3 24.44 71.84 24.57 60.79 24.57C51.31 24.57 49.75 24.5 49.56 24.09C49.41 23.74 48.78 23.61 47.51 23.61C46.2 23.61 45.61 23.74 45.46 24.09C45.12 24.79 43.55 24.7 43.33 23.93C43.22 23.58 42.69 23.13 42.17 22.91C41.31 22.59 41.05 22.62 40.42 23.19C39.78 23.74 39.6 24.38 39.45 26.84C39.26 29.59 39.34 29.91 40.08 30.71C41.09 31.83 42.06 31.83 42.99 30.8C43.74 30.01 45.08 29.75 45.49 30.33C45.79 30.74 49.3 30.74 49.49 30.36C49.56 30.17 54.71 29.97 61.73 29.91C74.6 29.75 75.24 29.69 77.18 28.15C80.39 25.56 80.39 21.37 77.14 18.75C75.35 17.31 74.45 17.18 65.46 17.18C56.02 17.21 54.86 17.09 54.71 15.87C54.64 15.45 54.82 14.91 55.08 14.72C55.42 14.5 58.85 14.34 64.9 14.27C73.78 14.18 74.3 14.14 75.8 13.44C76.69 13.06 77.85 12.13 78.41 11.39C79.3 10.27 79.45 9.73 79.45 7.91C79.45 6.02 79.3 5.57 78.33 4.36C77.66 3.56 76.51 2.69 75.53 2.25C73.89 1.54 73.71 1.54 59.08 1.54C46.24 1.54 44.22 1.48 44.04 1.06C43.89 0.74 43.29 0.58 42.17 0.58C41.05 0.58 40.46 0.74 40.31 1.06C39.97 1.83 38.37 1.64 37.69 0.74C36.91 -0.25 35.08 -0.38 34.48 0.55ZM37.02 4.39C36.91 7.3 36.87 7.46 36.09 7.56C35.23 7.65 35.23 7.62 35.23 4.33C35.23 0.9 35.53 0.23 36.65 1C36.98 1.22 37.1 2.18 37.02 4.39ZM43.14 4.17C43.14 5.54 43.03 6.66 42.92 6.66C42.81 6.66 42.36 6.66 41.95 6.66C41.28 6.66 41.2 6.44 41.2 4.33C41.2 1.8 41.35 1.48 42.43 1.61C43.07 1.7 43.14 1.99 43.14 4.17ZM40.08 4.26C40.08 5.89 40.01 6.02 39.19 6.02C38.1 6.02 37.99 5.8 38.14 3.94C38.29 2.66 38.4 2.5 39.19 2.5C40.01 2.5 40.08 2.63 40.08 4.26ZM74.9 2.98C78.41 4.23 79.68 8.42 77.4 11.17C75.72 13.15 74.49 13.38 64.82 13.38C60.08 13.38 55.76 13.5 55.23 13.7C53.48 14.27 53.07 16.16 54.49 17.34C54.97 17.79 56.43 17.85 64.08 17.88C74.79 17.92 75.87 18.14 77.74 20.73C78.67 22.04 78.78 24.47 78 25.78C77.25 27 75.57 28.25 74.08 28.69C73.26 28.92 68.85 29.05 61.09 29.05L49.37 29.05L49.49 27.19L49.6 25.37L61.32 25.27C71.58 25.21 73.15 25.14 73.74 24.66C74.6 23.99 74.6 22.91 73.74 22.23C73.22 21.82 71.65 21.72 63.78 21.63L54.45 21.53L52.66 20.64C50.53 19.55 49.45 17.85 49.41 15.61C49.41 13.79 50.31 12.26 52.14 11.01L53.59 10.02L63.48 9.86C72.7 9.7 73.41 9.67 73.89 9.09C74.6 8.23 74.56 7.43 73.67 6.66C72.96 6.05 72.44 6.02 58.55 6.02L44.19 6.02L44.19 4.26L44.19 2.5L58.89 2.5C70.94 2.5 73.82 2.6 74.9 2.98ZM42.21 24.06C42.36 24.31 42.47 25.85 42.4 27.45C42.28 29.69 42.13 30.42 41.69 30.55C41.39 30.64 40.98 30.55 40.79 30.29C40.31 29.62 40.38 24.44 40.9 23.99C41.5 23.48 41.84 23.51 42.21 24.06ZM48.29 27.13C48.29 29.65 48.29 29.69 47.36 29.69C46.43 29.69 46.43 29.65 46.43 27.13C46.43 24.6 46.43 24.57 47.36 24.57C48.29 24.57 48.29 24.6 48.29 27.13ZM45.31 27.13C45.31 28.95 45.27 29.05 44.37 29.05C43.48 29.05 43.44 28.95 43.44 27.35C43.44 25.5 43.59 25.21 44.63 25.21C45.19 25.21 45.31 25.46 45.31 27.13Z" fill="#000000" fill-opacity="1.000000" fill-rule="nonzero"/>
	<path id="Vector" d="M60.87 4.33C60.35 4.74 60.64 5.06 61.5 5.06C62.62 5.06 63.07 4.58 62.25 4.29C61.5 4.04 61.17 4.04 60.87 4.33Z" fill="#000000" fill-opacity="1.000000" fill-rule="nonzero"/>
	<path id="Vector" d="M64.41 4.29C63.26 4.74 64.68 5.06 67.74 5.06C70.27 5.06 71.09 4.97 70.98 4.65C70.8 4.26 65.38 3.97 64.41 4.29Z" fill="#000000" fill-opacity="1.000000" fill-rule="nonzero"/>
	<path id="Vector" d="M53.63 11.84C53.14 12.03 52.77 12.38 52.77 12.64C52.77 13.18 52.92 13.15 54.26 12.58C56.13 11.74 55.49 11.07 53.63 11.84Z" fill="#000000" fill-opacity="1.000000" fill-rule="nonzero"/>
	<path id="Vector" d="M51.28 14.34C51.28 15.1 51.84 15.2 52.17 14.46C52.51 13.76 52.47 13.7 51.84 13.7C51.54 13.7 51.28 13.98 51.28 14.34Z" fill="#000000" fill-opacity="1.000000" fill-rule="nonzero"/>
	<path id="Vector" d="M53.78 27.32C53.22 27.8 53.55 28.09 54.67 28.09C55.42 28.09 55.76 27.96 55.68 27.67C55.49 27.22 54.19 27 53.78 27.32Z" fill="#000000" fill-opacity="1.000000" fill-rule="nonzero"/>
	<path id="Vector" d="M57.25 27.61C57.25 27.99 57.77 28.09 59.9 28.09C61.84 28.09 62.51 27.99 62.4 27.67C62.29 27.45 61.32 27.25 59.75 27.19C57.7 27.13 57.25 27.19 57.25 27.61Z" fill="#000000" fill-opacity="1.000000" fill-rule="nonzero"/>
	<path id="Vector" d="M85.69 41.87C81.92 42.25 76.84 43.31 74.6 44.2C72.89 44.88 72.55 45.2 71.28 47.27C69.64 49.96 69.56 49.93 67.85 46.63C66.76 44.59 66.17 43.95 64.15 42.83C62.81 42.09 62.32 42 58.93 42C54.93 42 52.51 42.64 50.64 44.14L49.78 44.81L49.78 44.01C49.78 42.06 50.08 42.13 43.63 42.67C40.57 42.89 36.39 43.66 32.99 44.59C30.6 45.23 29.97 45.55 28.77 46.79C27.99 47.59 27.13 48.65 26.87 49.19L26.42 50.15L25.56 49.19C25.12 48.65 24.52 47.63 24.22 46.92C22.88 43.69 19.67 41.84 15.49 41.84C12.47 41.84 9.48 42.51 7.61 43.56C6.46 44.24 5.97 44.81 5.04 46.89C3.73 49.86 2.58 53.61 2.91 53.89C3.02 54.02 4.03 53.86 5.15 53.57C7.8 52.84 7.91 52.87 6.76 53.93C5.86 54.73 5.52 55.68 4.22 61.03C2.32 68.96 0.71 77.4 0.11 82.55L-0.37 86.61L0.56 87.44C1.05 87.89 2.24 88.62 3.21 89.04C4.18 89.46 5.08 89.97 5.23 90.16C5.64 90.73 8.44 91.73 9.7 91.73L10.86 91.73L11.12 88.75C11.27 87.15 11.68 84.31 12.02 82.45L12.65 79.13L14.15 79C16.94 78.77 19.41 77.5 21.24 75.26C24.78 71 26.68 66.21 27.47 59.46L27.92 55.56L29.18 55.08C29.89 54.82 30.49 54.63 30.53 54.63C30.57 54.63 30.53 55.27 30.45 56.07C30.34 57.22 30.42 57.51 30.9 57.51C31.24 57.51 31.5 57.64 31.5 57.83C31.5 57.99 30.83 61.06 30.04 64.61C28.59 71.04 28.03 74.04 27.58 77.88L27.32 79.83L25.04 80.12L22.73 80.37L22.09 82.61C21.76 83.83 21.46 85.75 21.46 86.83C21.42 88.59 21.53 88.88 22.39 89.46C22.95 89.84 23.92 90.13 24.67 90.13C25.68 90.13 25.98 90.29 26.31 90.96C26.65 91.82 26.68 91.82 29.56 91.63C35.23 91.28 41.84 89.3 42.96 87.63L43.59 86.67L44.26 87.41C44.63 87.82 45.72 88.46 46.65 88.85C47.58 89.26 48.78 89.9 49.26 90.29C50.16 90.99 52.43 91.73 53.82 91.73C54.75 91.73 55.01 91.15 55.01 89.07C55.01 87.54 55.83 81.84 56.35 79.83C56.54 79.06 56.73 78.93 57.92 78.93C61.2 78.93 64.19 76.89 66.91 72.86L68.11 71.1L67.88 72.95C67.77 73.98 67.59 75 67.51 75.19C67.18 75.96 66.21 83.73 66.21 85.43C66.21 87.6 67.1 88.72 69.12 89.04C69.94 89.17 70.83 89.58 71.32 90.1C72.06 90.86 72.29 90.93 75.05 90.86C79.86 90.8 84.3 89.07 85.46 86.8C85.95 85.81 85.95 85.81 85.98 86.64C85.98 87.89 87.29 89.1 89.08 89.55C89.94 89.74 90.95 90.19 91.32 90.51C92.25 91.34 93.56 91.73 95.31 91.73C97.85 91.73 97.93 91.63 97.93 88.69C97.93 86 98.41 84.85 98.86 86.55C98.97 87.03 99.38 87.89 99.79 88.46C100.43 89.36 100.73 89.49 102.18 89.49C103.6 89.49 103.86 89.58 104.05 90.29C104.42 91.6 105.54 91.89 107.41 91.12C108.26 90.73 109.42 90.03 109.98 89.55L110.99 88.62L110.06 86.45C108.82 83.7 107.78 79.93 107.26 76.31L106.81 73.5L108.34 72.03C111.73 68.73 113.53 64.16 113.86 57.99C114.12 53.19 113.56 50.7 111.73 48.23C111.14 47.43 110.58 46.41 110.43 45.96C110.06 44.68 108.04 42.8 106.36 42.13C104.05 41.23 99.72 41.33 96.21 42.32C92.89 43.28 93.11 43.24 93.34 42.51C93.63 41.52 91.25 41.33 85.69 41.87ZM91.66 43.82C91.43 45.32 89.72 49.03 88.97 49.54C88.6 49.83 87.44 50.18 86.47 50.28C85.5 50.41 83.89 50.63 82.96 50.82L81.21 51.14L80.27 53.61C79.3 56.16 78.3 60.93 78.67 61.25C78.78 61.38 80.2 61.12 81.84 60.77C83.45 60.39 85.05 60.07 85.39 60.07C86.25 60.07 86.17 61.67 85.2 63.42C84.12 65.41 82.29 66.69 79.64 67.33C77.03 67.93 77.03 67.93 76.13 73.5C75.01 80.31 75.01 80.21 75.98 80.21C76.47 80.21 78.07 79.93 79.57 79.57C81.02 79.22 82.4 78.93 82.63 78.93C83.6 78.93 82.51 83 81.1 84.75C79.6 86.55 73.07 88.27 69.79 87.76C67.74 87.44 67.55 86.8 68.07 82.64C69.23 73.47 72.7 57.19 73.82 55.75C74.12 55.4 74.94 54.57 75.68 53.93C76.43 53.29 77.03 52.52 77.03 52.23C77.03 51.59 75.39 51.59 73.3 52.23C71.28 52.84 71.17 52.84 70.94 52.04C70.68 51.24 71.88 48.84 73.56 46.89C74.68 45.58 75.16 45.29 77.25 44.72C81.21 43.69 87.07 42.86 90.09 42.92C91.69 42.96 91.77 42.99 91.66 43.82ZM105.61 43.4C108.94 44.68 110.06 47.43 110.06 54.15C110.06 58.18 109.91 59.36 109.2 61.51C108.3 64.16 106.25 67.42 104.27 69.34C103.19 70.4 103.11 70.59 103.34 72.22C103.86 76.12 105.54 82 107.07 85.39C107.26 85.78 106.77 86.26 105.39 87.22C102.82 88.98 101.85 88.94 100.95 87.15C99.98 85.2 98.9 81.33 97.89 76.34C97.11 72.28 96.36 70.49 95.91 71.61C95.58 72.41 94.57 80.57 94.34 84.63L94.08 88.53L92.07 88.53C90.09 88.53 88.67 88.14 88.15 87.44C87.14 86.16 88.63 75.93 92.07 60.87C93.22 55.84 93.41 55.3 94.68 53.86C95.8 52.65 95.99 52.23 95.65 51.88C95.43 51.62 94.9 51.43 94.53 51.43C93.86 51.43 93.86 51.37 94.38 50.28C94.68 49.64 95.05 48.33 95.16 47.4L95.43 45.68L94.27 45.68C91.84 45.68 94.05 44.11 97.59 43.31C100.46 42.64 103.79 42.7 105.61 43.4ZM17.91 43.47C22.47 44.46 24.74 50.02 23.7 57.51C22.84 63.65 20.15 69.69 16.91 72.95C15.04 74.81 13.66 75.45 10.97 75.7L8.92 75.9L8.47 78.29C8.25 79.61 7.84 82.45 7.58 84.59C7.13 88.5 7.13 88.53 6.16 88.53C4.78 88.5 2.17 87.41 1.68 86.67C0.9 85.39 3.47 70.36 6.57 58.47C7.2 56 7.58 55.21 8.58 54.21C10.79 52.14 10.04 50.98 6.94 51.72C6.01 51.91 5.19 52.04 5.11 51.94C5 51.85 5.45 50.34 6.08 48.59C7.39 44.97 8.03 44.4 11.38 43.63C13.88 43.05 15.75 43.02 17.91 43.47ZM62.14 43.6C64.34 44.27 65.01 44.84 66.35 47.27C67.47 49.29 67.51 49.51 67.51 53.67C67.51 60.16 66.73 63.55 64.15 68.22C61.35 73.27 58.14 75.74 54.41 75.74C52.85 75.74 52.85 75.74 52.62 77.11C52.47 77.88 52.29 78.87 52.21 79.29C51.65 81.88 51.28 84.79 51.28 86.51L51.28 88.53L50.08 88.53C48.29 88.53 45.72 87.34 45.46 86.39C44.97 84.72 46.99 72.41 49.41 62.46C50.05 59.81 50.68 57.22 50.79 56.64C50.9 56.1 51.65 54.95 52.47 54.12C54.26 52.26 54.19 51.62 52.29 51.5C51.09 51.4 50.9 51.3 51.09 50.86C51.24 50.57 51.43 49.54 51.54 48.62C51.73 47.34 51.61 46.83 51.24 46.6C50.83 46.41 50.83 46.19 51.13 45.77C52.7 43.6 58.41 42.48 62.14 43.6ZM48.14 44.88C47.7 47.18 47.14 48.94 46.39 50.28L45.64 51.69L43.1 51.91C41.72 52.04 40.42 52.23 40.19 52.33C39.82 52.55 38.51 57.86 37.32 64.06C36.69 67.23 34.86 78.68 34.86 79.38C34.86 79.73 35.42 79.7 37.77 79.22C39.34 78.9 40.72 78.65 40.79 78.61C40.87 78.61 40.83 79.51 40.75 80.63C40.49 83.48 39.37 85.14 37.13 86.13C34.3 87.34 29.48 88.3 26.09 88.34L23.1 88.37L23.14 86.29C23.18 85.14 23.44 83.64 23.7 82.93C24.18 81.72 24.3 81.65 26.42 81.33C29 80.95 29.04 80.88 29.41 77.18C29.67 74.42 30.38 70.72 32.25 62.3C33.4 57.19 33.48 57 34.93 55.65C37.58 53.19 36.2 52.52 30.79 53.61C29.15 53.93 27.69 54.15 27.58 54.05C27.17 53.7 27.43 52.01 28.14 50.34C28.85 48.75 29.41 48.2 32.17 46.28C33.33 45.48 42.43 43.88 46.35 43.79L48.33 43.76L48.14 44.88ZM50.57 53.86C50.16 54.31 49.67 55.14 49.45 55.68C48.74 57.6 45.72 71.1 44.9 76.15C44.15 80.66 43.96 81.27 43.29 81.49C42.55 81.72 42.51 81.59 42.32 79.45L42.13 77.18L40.68 77.27L39.26 77.37L39.48 75.83C41.09 66.17 43.22 56 43.78 55.49C43.93 55.37 45.16 55.14 46.54 55.01C48.59 54.79 49.15 54.6 49.78 53.89C50.23 53.41 50.76 53.03 50.94 53.03C51.17 53.03 50.98 53.41 50.57 53.86ZM92.7 53.64C92.7 53.83 92.55 54.02 92.37 54.15C92.03 54.31 91.21 57 90.65 59.75C90.13 62.14 89.79 63.39 89.75 63.01C89.72 62.72 89.34 62.66 88.48 62.78L87.25 62.98L87.4 60.87L87.55 58.72L85.46 58.85C83.07 58.98 83.07 58.98 84.04 56.23C84.49 55.01 84.98 54.34 85.61 54.09C86.73 53.61 88.86 53.54 89.04 53.99C89.12 54.21 89.68 54.15 90.65 53.86C92.48 53.29 92.7 53.25 92.7 53.64ZM72.51 54.69C72.06 55.27 71.62 55.81 71.54 55.88C71.47 55.94 71.43 55.56 71.43 55.01C71.43 54.12 71.73 53.86 73.03 53.7C73.22 53.7 72.96 54.15 72.51 54.69ZM88.26 70.84C87.29 75.67 87.18 76.41 86.88 78.93C86.66 81.04 86.1 81.81 84.83 81.81C84.27 81.81 84.19 81.59 84.38 80.12C84.45 79.22 84.42 78.13 84.23 77.78C83.93 77.08 83.93 77.08 81.8 77.65L79.64 78.23L79.64 77.53C79.64 77.18 79.9 75.58 80.24 74.01C80.91 70.88 80.5 71.26 84.94 69.85C86.17 69.47 87.07 68.89 87.74 68.06C88.34 67.39 88.86 66.88 88.9 66.94C88.97 67.01 88.71 68.76 88.26 70.84Z" fill="#000000" fill-opacity="1.000000" fill-rule="nonzero"/>
	<path id="Vector" d="M101.06 51.02C100.84 51.18 100.46 51.78 100.24 52.39C99.16 55.37 97.11 66.14 97.63 66.14C98.26 66.14 99.98 65.25 100.76 64.48C103.82 61.63 105.35 55.11 103.67 52.17C102.96 50.98 101.92 50.5 101.06 51.02Z" fill="#000000" fill-opacity="1.000000" fill-rule="nonzero"/>
	<path id="Vector" d="M15.3 51.4C14.41 51.69 14 53.03 12.32 60.71C10.3 69.95 10.38 69.34 11.42 69.34C12.91 69.34 14 68.38 15.26 66.01C17.21 62.34 17.84 59.97 17.84 56.39C17.88 52.23 17.13 50.79 15.3 51.4Z" fill="#000000" fill-opacity="1.000000" fill-rule="nonzero"/>
	<path id="Vector" d="M58.93 51.56C58.07 52.1 57.44 54.34 55.46 64.13C54.49 68.96 54.45 69.34 55.08 69.34C56.69 69.34 57.7 68.54 58.97 66.27C61.58 61.6 62.59 54.98 61.06 52.42C60.31 51.11 59.9 50.95 58.93 51.56Z" fill="#000000" fill-opacity="1.000000" fill-rule="nonzero"/>
</svg>
